<?xml version="1.0" encoding="UTF-8" standalone="no"?>
<!DOCTYPE svg PUBLIC "-//W3C//DTD SVG 1.1//EN" "http://www.w3.org/Graphics/SVG/1.1/DTD/svg11.dtd">
<svg width="100%" height="100%" viewBox="0 0 32 32" version="1.1" xmlns="http://www.w3.org/2000/svg" xmlns:xlink="http://www.w3.org/1999/xlink" xml:space="preserve" xmlns:serif="http://www.serif.com/" style="fill-rule:evenodd;clip-rule:evenodd;stroke-linejoin:round;stroke-miterlimit:2;">
    <g transform="matrix(1.51585,0,0,1.51585,-22.2558,5.7083)">
        <path d="M24.632,-2.202C25.003,-2.355 25.419,-2.355 25.789,-2.202L31.16,0.023C31.53,0.176 31.824,0.47 31.977,0.84L34.202,6.211C34.355,6.581 34.355,6.997 34.202,7.368L31.977,12.738C31.824,13.109 31.53,13.403 31.16,13.556L25.789,15.781C25.419,15.934 25.003,15.934 24.632,15.781L19.262,13.556C18.891,13.403 18.597,13.109 18.444,12.738L16.219,7.368C16.066,6.997 16.066,6.581 16.219,6.211L18.444,0.84C18.597,0.47 18.891,0.176 19.262,0.023L24.632,-2.202ZM24.992,0.958L21.2,2.529C21.069,2.583 20.964,2.687 20.91,2.819L19.339,6.611C19.285,6.742 19.285,6.89 19.339,7.021L20.91,10.813C20.964,10.945 21.069,11.049 21.2,11.103L24.992,12.674C25.124,12.729 25.271,12.729 25.402,12.674L29.195,11.103C29.326,11.049 29.43,10.945 29.485,10.813L31.055,7.021C31.11,6.89 31.11,6.742 31.055,6.611L29.485,2.819C29.43,2.687 29.326,2.583 29.195,2.529L25.402,0.958C25.271,0.903 25.124,0.903 24.992,0.958Z" style="fill:rgb(96,96,96);"/>
    </g>
    <g transform="matrix(1.51585,0,0,1.51585,-22.2558,5.7083)">
        <path d="M16.639,8.38L15.701,8.594C15.548,8.224 15.548,7.808 15.701,7.438L18.035,1.809L17.236,1.307C17.389,0.937 17.683,0.643 18.053,0.489L23.637,-1.821L23.432,-2.714C23.803,-2.867 24.219,-2.867 24.589,-2.714L30.188,-0.393L30.669,-1.159C31.039,-1.005 31.333,-0.711 31.486,-0.341L31.947,0.771C31.957,0.794 31.968,0.817 31.977,0.84L33.8,5.241L34.674,5.041C34.828,5.411 34.828,5.827 34.674,6.198L34.263,7.19C34.246,7.25 34.226,7.309 34.202,7.368L32.387,11.748L33.155,12.23C33.002,12.601 32.708,12.895 32.338,13.048L31.372,13.448C31.304,13.489 31.233,13.525 31.16,13.556L26.762,15.378L26.965,16.267C26.595,16.42 26.179,16.42 25.809,16.267L24.689,15.803C24.67,15.796 24.651,15.788 24.632,15.781L20.266,13.972L19.765,14.77C19.395,14.616 19.1,14.322 18.947,13.952L18.463,12.783C18.457,12.768 18.45,12.753 18.444,12.738L16.639,8.38ZM24.992,0.958L21.2,2.529C21.069,2.583 20.964,2.687 20.91,2.819L19.339,6.611C19.285,6.742 19.285,6.89 19.339,7.021L20.91,10.813C20.964,10.945 21.069,11.049 21.2,11.103L24.992,12.674C25.124,12.729 25.271,12.729 25.402,12.674L29.195,11.103C29.326,11.049 29.43,10.945 29.485,10.813L31.055,7.021C31.11,6.89 31.11,6.742 31.055,6.611L29.485,2.819C29.43,2.687 29.326,2.583 29.195,2.529L25.402,0.958C25.271,0.903 25.124,0.903 24.992,0.958Z" style="fill:rgb(96,96,96);"/>
    </g>
    <g transform="matrix(1.91182,0,0,1.91182,-15.1485,-15.1787)">
        <circle cx="16.293" cy="16.298" r="1.402" style="fill:rgb(96,96,96);"/>
    </g>
</svg>
